<svg width="28" height="28" viewBox="0 0 28 28" fill="none" xmlns="http://www.w3.org/2000/svg">
<g id="Layer_1" clip-path="url(#clip0_5_19)">
<path id="Vector" d="M6.27699 27.9947C4.70162 27.9947 3.12711 27.9965 1.55174 27.9947C0.553208 27.993 0.00265862 27.4494 0.00178195 26.4605C-0.000848062 23.2886 2.86092e-05 20.1176 0.00178195 16.9457C0.00178195 15.9585 0.561098 15.3948 1.54385 15.3948C4.71564 15.3922 7.88832 15.3922 11.0601 15.3948C12.0192 15.3948 12.6022 15.9699 12.6039 16.922C12.6083 20.1044 12.6083 23.2869 12.6039 26.4693C12.6031 27.4284 12.0315 27.993 11.068 27.9947C9.47071 27.9982 7.87429 27.9956 6.27699 27.9956V27.9947ZM6.28401 23.7883C6.28401 23.7883 6.28401 23.7918 6.28401 23.7936C6.51369 23.7936 6.74338 23.798 6.97307 23.7936C7.78574 23.7743 8.35733 23.236 8.39678 22.4259C8.41958 21.9464 8.4187 21.4633 8.39766 20.9838C8.36347 20.1886 7.80941 19.6345 7.01603 19.6003C6.53561 19.5793 6.05344 19.5793 5.57303 19.6003C4.76386 19.6363 4.21769 20.2105 4.20454 21.0224C4.19665 21.5142 4.19052 22.0069 4.21068 22.4978C4.23961 23.1966 4.79805 23.7489 5.49676 23.7875C5.758 23.8015 6.02101 23.7901 6.28401 23.7901V23.7883Z" fill="white"/>
<path id="Vector_2" d="M6.3181 3.60692e-05C7.8926 3.60692e-05 9.46798 -0.000840629 11.0434 0.000912768C12.0471 0.00266616 12.6038 0.558493 12.6047 1.5667C12.6065 4.71667 12.6065 7.86578 12.6047 11.0158C12.6047 12.0362 12.0393 12.6008 11.0188 12.6017C7.86893 12.6035 4.71817 12.6035 1.56829 12.6017C0.560121 12.6017 0.00255789 12.045 0.00168122 11.0412C-7.21246e-05 7.88068 -7.21246e-05 4.72018 0.00168122 1.55968C0.00168122 0.543589 0.543464 0.00266616 1.55953 0.000912768C3.14542 -0.000840629 4.73132 0.000912768 6.31722 0.000912768L6.3181 3.60692e-05ZM4.2062 6.27983C4.2062 6.27983 4.20444 6.27983 4.20269 6.27983C4.20269 6.50952 4.19831 6.73922 4.20269 6.96804C4.22022 7.78074 4.75762 8.35497 5.56767 8.39443C6.0472 8.4181 6.53025 8.41634 7.00979 8.3953C7.80493 8.36111 8.35986 7.80967 8.39581 7.01625C8.41772 6.5367 8.41772 6.05364 8.39581 5.57409C8.35811 4.76314 7.7874 4.21783 6.97648 4.20293C6.49606 4.19416 6.01389 4.19066 5.53348 4.20731C4.79795 4.23274 4.23951 4.79295 4.2062 5.52587C4.1948 5.7766 4.20444 6.02822 4.20444 6.27983H4.2062Z" fill="white"/>
<path id="Vector_3" d="M21.7081 9.26328e-06C23.2835 9.26328e-06 24.858 -0.00174413 26.4334 9.26328e-06C27.4538 0.000885962 27.9982 0.539179 27.9982 1.55264C28 4.71314 28 7.87364 27.9982 11.0341C27.9982 12.0406 27.4407 12.5999 26.4378 12.6008C23.2765 12.6025 20.1152 12.6034 16.9539 12.6008C15.9747 12.6008 15.397 12.0274 15.3961 11.0543C15.3934 7.88241 15.3934 4.71139 15.3961 1.53949C15.397 0.556713 15.9607 0.00176266 16.9495 9.26328e-06C18.5354 -0.00262083 20.1213 9.26328e-06 21.7072 9.26328e-06H21.7081ZM23.7972 6.2912C23.7972 6.2912 23.7963 6.2912 23.7955 6.2912C23.7955 6.05098 23.8025 5.80989 23.7946 5.56967C23.7674 4.78152 23.2046 4.22219 22.4103 4.20378C21.9518 4.19238 21.4916 4.19413 21.0331 4.20202C20.2046 4.21605 19.6313 4.76837 19.6006 5.5951C19.5831 6.06413 19.5822 6.5358 19.6006 7.00483C19.6322 7.79737 20.1836 8.35758 20.9761 8.39527C21.4556 8.41807 21.9387 8.41719 22.4191 8.39527C23.23 8.35933 23.7753 7.7886 23.7955 6.97941C23.8016 6.74971 23.7963 6.52002 23.7963 6.2912H23.7972Z" fill="white"/>
<path id="Vector_4" d="M19.5962 18.1985C20.0617 18.1985 20.486 18.1967 20.9104 18.1985C21.8221 18.2038 22.3989 18.7841 22.4025 19.702C22.4051 20.577 22.4068 21.4519 22.4025 22.3269C22.3981 23.2062 21.8256 23.7796 20.9428 23.7927C20.5159 23.7989 20.0898 23.7989 19.6629 23.7927C18.7792 23.7804 18.2067 23.208 18.2032 22.3286C18.1988 21.4326 18.2023 20.5367 18.2023 19.5933C17.7824 19.5933 17.3818 19.5942 16.9811 19.5933C15.951 19.5907 15.3996 19.0428 15.3961 18.0179C15.3943 17.6348 15.39 17.2525 15.397 16.8694C15.4128 15.991 15.9861 15.4132 16.861 15.3948C17.2871 15.3861 17.714 15.3861 18.141 15.3948C19.0211 15.4124 19.5848 15.9848 19.5954 16.8686C19.6006 17.2937 19.5962 17.7189 19.5962 18.1985Z" fill="white"/>
<path id="Vector_5" d="M24.4994 19.5881C24.2373 19.5881 23.9743 19.5995 23.7122 19.5854C23.0038 19.5486 22.4349 18.9823 22.4086 18.2713C22.3902 17.7584 22.391 17.2438 22.4086 16.73C22.434 15.9962 23.0056 15.4343 23.77 15.3992C24.261 15.3764 24.7545 15.3747 25.2455 15.3992C26.0485 15.4404 26.5938 16.0295 26.6034 16.8361C26.6087 17.2841 26.6104 17.7321 26.6034 18.1801C26.5903 18.9823 26.0204 19.5618 25.2209 19.5881C24.9807 19.596 24.7396 19.5889 24.4994 19.5889C24.4994 19.5881 24.4994 19.5872 24.4994 19.5854V19.5881Z" fill="white"/>
<path id="Vector_6" d="M19.5918 25.9266C19.5918 26.1782 19.6024 26.4298 19.5901 26.6806C19.555 27.3968 19.001 27.9588 18.2847 27.9868C17.7938 28.0061 17.3011 28.0017 16.8093 27.9921C16.0027 27.9754 15.4338 27.4214 15.4005 26.6095C15.3812 26.1405 15.3829 25.6697 15.4005 25.1998C15.4294 24.3924 15.9913 23.8295 16.7996 23.7989C17.2581 23.7813 17.7184 23.784 18.1769 23.7971C19.0211 23.8216 19.5796 24.3933 19.5962 25.2375C19.6006 25.4672 19.5962 25.6969 19.5962 25.9257C19.5945 25.9257 19.5936 25.9257 19.5918 25.9257V25.9266Z" fill="white"/>
<path id="Vector_7" d="M24.4811 27.9904C24.2295 27.9904 23.9779 28.0009 23.7271 27.9886C23.0012 27.9535 22.4314 27.3828 22.4077 26.6551C22.392 26.1747 22.3981 25.6934 22.4051 25.2121C22.4156 24.466 22.9153 23.8804 23.6596 23.8173C24.2128 23.7699 24.7756 23.7708 25.3297 23.8138C26.088 23.8734 26.593 24.4608 26.6035 25.2252C26.6096 25.6846 26.6114 26.1432 26.6026 26.6025C26.5868 27.3837 26.0144 27.9632 25.235 27.9912C24.9843 28 24.7318 27.993 24.4811 27.993V27.9912V27.9904Z" fill="white"/>
</g>
<defs>
<clipPath id="clip0_5_19">
<rect width="28" height="28" fill="white"/>
</clipPath>
</defs>
</svg>
